<?xml version="1.0" encoding="UTF-8" standalone="no"?>
<!-- Created with Inkscape (http://www.inkscape.org/) -->

<svg
   xmlns:dc="http://purl.org/dc/elements/1.1/"
   xmlns:cc="http://creativecommons.org/ns#"
   xmlns:rdf="http://www.w3.org/1999/02/22-rdf-syntax-ns#"
   xmlns:svg="http://www.w3.org/2000/svg"
   xmlns="http://www.w3.org/2000/svg"
   xmlns:sodipodi="http://sodipodi.sourceforge.net/DTD/sodipodi-0.dtd"
   xmlns:inkscape="http://www.inkscape.org/namespaces/inkscape"
   width="391.60156"
   height="122.65625"
   id="svg3001"
   version="1.1"
   inkscape:version="0.48.4 r9939"
   sodipodi:docname="traefik.logo.typo.svg">
  <defs
     id="defs3003" />
  <sodipodi:namedview
     id="base"
     pagecolor="#ffffff"
     bordercolor="#666666"
     borderopacity="1.0"
     inkscape:pageopacity="0.0"
     inkscape:pageshadow="2"
     inkscape:zoom="2.8284271"
     inkscape:cx="230.72922"
     inkscape:cy="51.898554"
     inkscape:document-units="px"
     inkscape:current-layer="layer1"
     showgrid="false"
     inkscape:window-width="1920"
     inkscape:window-height="1027"
     inkscape:window-x="0"
     inkscape:window-y="30"
     inkscape:window-maximized="1"
     fit-margin-top="10"
     fit-margin-right="10"
     fit-margin-bottom="10"
     fit-margin-left="10" />
  <metadata
     id="metadata3006">
    <rdf:RDF>
      <cc:Work
         rdf:about="">
        <dc:format>image/svg+xml</dc:format>
        <dc:type
           rdf:resource="http://purl.org/dc/dcmitype/StillImage" />
        <dc:title></dc:title>
      </cc:Work>
    </rdf:RDF>
  </metadata>
  <g
     inkscape:label="Layer 1"
     inkscape:groupmode="layer"
     id="layer1"
     style="display:inline"
     transform="translate(-75.962051,-49.976028)">
    <g
       style="font-size:40px;font-style:normal;font-variant:normal;font-weight:normal;font-stretch:normal;line-height:125%;letter-spacing:0px;word-spacing:0px;fill:#000000;fill-opacity:1;stroke:none;font-family:DejaVu Sans;-inkscape-font-specification:DejaVu Sans"
       id="text3009">
      <path
         d="m 119.09119,162.63228 4.14844,0 c 1.68746,0 3.04684,-0.0469 4.07813,-0.14063 1.07808,-0.0937 2.13277,-0.30468 3.16406,-0.63281 1.07808,-0.32812 1.87495,-0.84375 2.39062,-1.54687 0.51558,-0.75 0.77339,-1.71094 0.77344,-2.88282 -5e-5,-1.31249 -0.44536,-2.46093 -1.33594,-3.44531 -0.89067,-0.98437 -2.10942,-1.47655 -3.65625,-1.47656 l -0.42187,0 -4.78125,0.21094 -0.77344,0 c -2.95316,0 -5.10941,-1.05468 -6.46875,-3.16407 -1.3594,-2.15623 -2.03909,-5.64842 -2.03906,-10.47656 l 0,-38.32031 12.9375,0 c 3.0937,6e-5 4.64058,-1.335877 4.64062,-4.007814 -4e-5,-1.265559 -0.39848,-2.296808 -1.19531,-3.09375 -0.75004,-0.796806 -1.89848,-1.195243 -3.44531,-1.195313 l -12.9375,0 0,-20.390625 c -3e-5,-1.640533 -0.46878,-2.88272 -1.40625,-3.726562 -0.93753,-0.890531 -2.1094,-1.335843 -3.51563,-1.335938 -1.50002,9.5e-5 -2.88283,0.539157 -4.14843,1.617188 -1.21877,1.078217 -1.87502,2.367278 -1.96875,3.867187 l -1.68751,19.96875 -8.64844,0 c -1.546881,7e-5 -2.718754,0.398507 -3.515625,1.195313 -0.796878,0.750067 -1.195315,1.734441 -1.195313,2.953125 -2e-6,1.265689 0.398435,2.2735 1.195313,3.023437 0.843745,0.750062 2.039057,1.125062 3.585937,1.125002 l 8.578128,0 0,40.5 c -1e-5,7.26564 1.59374,12.65626 4.78126,16.17187 3.18747,3.46875 7.47653,5.20313 12.86718,5.20313"
         style="font-size:144px;font-family:Nunito;-inkscape-font-specification:Nunito;fill:#333333"
         id="path3014"
         inkscape:connector-curvature="0" />
      <path
         d="m 154.80994,161.6479 c 1.73436,0 3.23436,-0.51562 4.5,-1.54687 1.31248,-1.03125 1.96873,-2.48437 1.96875,-4.35938 l 0,-36.21093 c -2e-5,-5.48433 1.73435,-9.86714 5.20313,-13.14844 3.51559,-3.28119 8.43746,-4.92182 14.76562,-4.92188 1.49996,6e-5 2.6484,-0.49212 3.44532,-1.476559 0.79682,-1.031187 1.19526,-2.249936 1.19531,-3.65625 -5e-5,-1.499933 -0.44536,-2.812432 -1.33594,-3.9375 -0.84379,-1.12493 -2.01567,-1.687429 -3.51562,-1.6875 -4.96879,7.1e-5 -9.23441,1.476632 -12.79688,4.429687 -3.51565,2.906314 -5.8594,6.539122 -7.03125,10.898442 l 0.0703,-8.437504 c -2e-5,-1.781184 -0.63283,-3.163995 -1.89843,-4.148438 -1.21877,-1.03118 -2.69534,-1.546805 -4.42969,-1.546875 -1.73439,7e-5 -3.23439,0.515695 -4.5,1.546875 -1.26564,0.984443 -1.89845,2.414129 -1.89844,4.289063 l 0,58.007809 c -1e-5,1.87501 0.60936,3.32813 1.82813,4.35938 1.21873,1.03125 2.69529,1.54687 4.42968,1.54687"
         style="font-size:144px;font-family:Nunito;-inkscape-font-specification:Nunito;fill:#333333"
         id="path3016"
         inkscape:connector-curvature="0" />
      <path
         d="m 326.8058,161.6479 c 1.73435,0 3.23435,-0.53906 4.5,-1.61718 1.2656,-1.125 1.89841,-2.67187 1.89844,-4.64063 l 0,-54.63281 11.88281,0 c 2.99996,6e-5 4.49996,-1.359314 4.5,-4.078127 -4e-5,-1.218683 -0.37504,-2.226495 -1.125,-3.023437 -0.70317,-0.796806 -1.82817,-1.195243 -3.375,-1.195313 l -11.88281,0 0,-5.484375 c -3e-5,-3.796796 0.14059,-6.796793 0.42187,-9 0.3281,-2.249914 0.91404,-3.960849 1.75782,-5.132812 0.89059,-1.21866 1.8984,-1.992097 3.02343,-2.320313 1.12497,-0.374908 2.69528,-0.562408 4.71094,-0.5625 l 5.97656,0 c 1.40621,9.2e-5 2.48433,-0.468657 3.23438,-1.40625 0.79682,-0.937406 1.19526,-2.062404 1.19531,-3.375 -5e-5,-1.312402 -0.39849,-2.437401 -1.19531,-3.375 -0.75005,-0.984274 -1.80474,-1.476461 -3.16406,-1.476562 l -8.57813,0 c -6.28128,1.01e-4 -11.20315,1.781349 -14.76562,5.34375 -3.56252,3.515717 -5.34377,9.468836 -5.34375,17.859375 l 0,8.929687 -9.21094,0 c -1.54688,7e-5 -2.69532,0.398507 -3.44531,1.195313 -0.75001,0.796942 -1.12501,1.804754 -1.125,3.023437 -1e-5,1.171939 0.37499,2.156313 1.125,2.953125 0.74999,0.750062 1.89843,1.125062 3.44531,1.125002 l 9.21094,0 0,54.63281 c -2e-5,1.96876 0.60935,3.51563 1.82812,4.64063 1.26561,1.07812 2.76561,1.61718 4.5,1.61718"
         style="font-size:144px;font-family:Nunito;-inkscape-font-specification:Nunito;fill:#333333"
         id="path3020"
         inkscape:connector-curvature="0" />
      <path
         d="m 371.17299,75.515091 c 2.48435,8.6e-5 4.47654,-0.703038 5.97656,-2.109375 1.49998,-1.453035 2.24998,-3.328033 2.25,-5.625 -2e-5,-2.343654 -0.75002,-4.218652 -2.25,-5.625 -1.50002,-1.453024 -3.46877,-2.179586 -5.90625,-2.179688 -2.48439,1.02e-4 -4.50001,0.726664 -6.04687,2.179688 -1.50001,1.453223 -2.25001,3.328221 -2.25,5.625 -1e-5,2.296967 0.74999,4.171965 2.25,5.625 1.49998,1.406337 3.49217,2.109461 5.97656,2.109375 m -0.0703,86.132809 c 1.73435,0 3.23435,-0.5625 4.5,-1.6875 1.31247,-1.17187 1.96872,-2.74218 1.96875,-4.71093 l 0,-57.164067 c -3e-5,-1.968684 -0.63284,-3.515557 -1.89844,-4.640625 -1.21877,-1.12493 -2.6719,-1.68743 -4.35938,-1.6875 -1.73439,7e-5 -3.25782,0.56257 -4.57031,1.6875 -1.26564,1.125068 -1.89845,2.671941 -1.89844,4.640625 l 0,57.164067 c -1e-5,2.0625 0.60937,3.65625 1.82813,4.78125 1.21873,1.07812 2.6953,1.61718 4.42969,1.61718"
         style="font-size:144px;font-family:Nunito;-inkscape-font-specification:Nunito;fill:#333333"
         id="path3022"
         inkscape:connector-curvature="0" />
      <path
         d="m 404.92299,161.6479 c 1.73436,0 3.23435,-0.5625 4.5,-1.6875 1.31248,-1.12499 1.96873,-2.6953 1.96875,-4.71093 l 0,-30.65625 33.04687,35.15625 c 1.17182,1.3125 2.57807,1.96875 4.21875,1.96875 1.54682,0 2.90619,-0.58594 4.07813,-1.75782 1.21868,-1.17187 1.82806,-2.5078 1.82812,-4.00781 -6e-5,-1.35937 -0.51569,-2.57812 -1.54687,-3.65625 l -27.91406,-29.39062 25.52343,-22.85157 c 1.12494,-1.078059 1.68744,-2.27337 1.6875,-3.585934 -6e-5,-1.453058 -0.586,-2.765557 -1.75781,-3.9375 -1.12506,-1.171805 -2.43756,-1.757742 -3.9375,-1.757813 -1.17193,7.1e-5 -2.27349,0.445383 -3.30469,1.335938 l -31.92187,29.249999 0,-53.789062 c -2e-5,-1.968654 -0.63284,-3.515527 -1.89844,-4.640625 -1.21877,-1.1249 -2.67189,-1.687399 -4.35937,-1.6875 -1.73439,1.01e-4 -3.25783,0.5626 -4.57032,1.6875 -1.26563,1.125098 -1.89844,2.671971 -1.89843,4.640625 l 0,87.679692 c -1e-5,2.0625 0.60936,3.65625 1.82812,4.78125 1.21874,1.07812 2.6953,1.61718 4.42969,1.61718"
         style="font-size:144px;font-family:Nunito;-inkscape-font-specification:Nunito;fill:#333333"
         id="path3024"
         inkscape:connector-curvature="0" />
    </g>
  </g>
  <g
     inkscape:groupmode="layer"
     id="layer3"
     inkscape:label="Layer"
     style="display:inline"
     transform="translate(-75.962051,-49.976028)">
    <path
       style="fill:#37abc8;fill-opacity:1;stroke:none"
       d="m 213.90201,161.62409 c -8.10108,-0.69832 -14.2914,-3.14196 -18.79386,-7.41891 -4.58088,-4.35144 -6.54647,-10.0247 -5.77075,-16.65608 0.89266,-7.63113 4.51907,-13.0202 10.87711,-16.16408 4.90028,-2.42305 9.78882,-3.34476 17.75,-3.34669 5.65637,-0.001 10.39607,0.46078 17.625,1.71853 1.7875,0.311 3.33507,0.5656 3.43905,0.56578 0.15121,2.5e-4 0.27113,-0.56888 0.59911,-2.84344 0.59342,-4.11529 0.69978,-5.53527 0.53811,-7.18382 -0.18818,-1.91885 -0.43377,-2.83286 -1.16074,-4.31994 -1.87565,-3.83683 -6.32813,-6.1843 -13.47803,-7.10598 -2.04481,-0.26359 -6.7641,-0.30051 -8.8125,-0.0689 -3.43188,0.38797 -5.34699,0.88232 -9.61805,2.48268 -2.49879,0.93629 -2.51021,0.93916 -3.50695,0.88073 -1.7135,-0.10044 -2.88325,-0.87621 -3.63352,-2.4097 -0.30899,-0.63155 -0.36332,-0.89224 -0.36333,-1.74319 0,-1.27739 0.33267,-1.95544 1.49105,-3.03905 2.59764,-2.42997 6.9689,-4.499415 11.3808,-5.387918 2.82498,-0.568917 4.21559,-0.688535 7.9375,-0.682772 3.85122,0.006 6.31379,0.223425 9.73625,0.859778 5.69258,1.058448 10.01503,2.924002 13.27441,5.729202 0.96711,0.83234 2.42542,2.47047 3.0503,3.42642 0.19099,0.29219 0.38774,0.53125 0.43721,0.53125 0.0495,0 0.36544,-0.35103 0.70214,-0.78008 4.93541,-6.28895 13.24779,-9.848646 22.98642,-9.843714 6.88808,0.0035 13.29064,1.746176 18.06327,4.916564 3.78548,2.51465 6.86071,6.38846 8.10302,10.20723 0.71329,2.19261 0.82175,3.00285 0.82831,6.1875 0.004,1.98161 -0.0506,3.31825 -0.16112,3.9375 -1.11693,6.25936 -3.77739,10.59562 -8.39521,13.68333 -3.71501,2.48405 -8.38069,3.93747 -14.48284,4.51162 -3.07175,0.28901 -8.69004,0.26169 -12.32966,-0.06 -3.08892,-0.27299 -6.88191,-0.75327 -8.5,-1.07631 -1.3544,-0.27039 -5.99244,-1.04482 -6.03063,-1.00695 -0.0168,0.0167 -0.2375,1.40409 -0.49035,3.08308 -0.40371,2.68081 -0.4609,3.34965 -0.46937,5.4902 -0.009,2.17627 0.0219,2.55807 0.28446,3.5625 0.84435,3.22969 2.70507,5.39008 6.08089,7.06026 3.32089,1.64299 6.80224,2.35401 12.0625,2.46359 2.32886,0.0485 3.52149,0.0151 4.97849,-0.13938 3.532,-0.37454 5.14148,-0.78542 9.83401,-2.51054 1.16875,-0.42967 2.36152,-0.82065 2.65061,-0.86885 0.61951,-0.1033 1.7749,0.11003 2.4483,0.45206 1.21543,0.61734 2.23663,2.2636 2.23027,3.59539 -0.007,1.55597 -0.53185,2.49837 -2.07223,3.72395 -3.68311,2.9304 -8.38575,4.72753 -13.99944,5.34993 -2.00177,0.22194 -6.5721,0.25469 -8.77968,0.0629 -6.21694,-0.54007 -10.53323,-1.60333 -14.47783,-3.56644 -3.07787,-1.53176 -5.42619,-3.4321 -7.1801,-5.81039 -0.43096,-0.58437 -0.79703,-1.07716 -0.81349,-1.09509 -0.0165,-0.0179 -0.30293,0.31958 -0.63661,0.75 -1.47495,1.9026 -3.73046,3.94762 -5.93464,5.38079 -3.18207,2.069 -7.75026,3.64743 -12.37266,4.27506 -1.37851,0.18717 -5.95219,0.34148 -7.125,0.24038 z m 7.9375,-8.90632 c 3.77391,-0.83646 7.13702,-2.72161 9.57848,-5.3691 2.22705,-2.41498 4.05369,-6.03275 5.05898,-10.01958 0.56667,-2.24736 1.50861,-8.50223 1.29981,-8.63128 -0.0824,-0.051 -0.5802,-0.13153 -1.10609,-0.17904 -0.5259,-0.0475 -2.02493,-0.22462 -3.33118,-0.39356 -7.75895,-1.0035 -12.51897,-1.39334 -15.1875,-1.24383 -5.0733,0.28425 -7.14151,0.72719 -10.1875,2.18183 -1.56046,0.74521 -2.63749,1.55388 -3.48967,2.62016 -1.2226,1.52979 -1.96055,3.04994 -2.47493,5.09831 -0.37432,1.4906 -0.41252,5.39364 -0.0651,6.65115 0.58524,2.11834 1.27998,3.31723 2.8422,4.90468 2.13917,2.17372 4.95914,3.62385 8.45704,4.34893 1.78861,0.37076 1.73568,0.36716 4.73046,0.32208 2.17302,-0.0327 2.98604,-0.0937 3.875,-0.29075 l 0,0 z m 49.4375,-29.32806 c 3.15624,-0.27849 5.09695,-0.76844 7.48144,-1.88873 1.98315,-0.93173 3.1358,-1.88405 4.22656,-3.49198 1.60587,-2.36729 2.23121,-4.60762 2.21515,-7.93605 -0.0114,-2.37239 -0.21255,-3.35931 -1.03156,-5.0625 -1.82991,-3.80543 -6.12862,-6.53121 -11.76659,-7.46112 -1.40687,-0.23205 -5.18294,-0.19083 -6.625,0.0723 -2.77422,0.50623 -5.11927,1.42883 -7.1875,2.82772 -3.82111,2.58448 -6.4582,6.48035 -7.92668,11.71036 -0.57681,2.05432 -0.73057,2.84286 -1.24484,6.38396 l -0.47438,3.26647 0.63545,0.0704 c 1.91923,0.21275 6.24704,0.73679 8.76045,1.06076 1.58125,0.20382 3.52188,0.42135 4.3125,0.4834 2.28564,0.17938 6.38353,0.16273 8.625,-0.0351 l 0,0 z"
       id="path4507"
       inkscape:connector-curvature="0" />
  </g>
</svg>
